<svg xmlns="http://www.w3.org/2000/svg" version="1.1" xmlns:xlink="http://www.w3.org/1999/xlink" viewBox="0 0 5.910104675401792 4.612220897102597"><g transform="matrix(0.8402536951758233,0,0,0.8402536951758233,2.9512889883742712,4.032983219603075)"><g transform="matrix(1,0,0,1,0,0)"><path d=" M -1.7956805818831203 -1.7096998242347419 L -1.7939656596053337 -1.513707326823282 L -2.185666931368665 -1.2492699737526751 L -1.7916820131027713 -1.2527173175151642 L -1.789967090824985 -1.0567248201037043 L -2.494940104473349 -1.050556349665748 L -2.496655026751135 -1.246548847077208 L -2.0999539463803685 -1.5110299481651053 L -2.4989386732536976 -1.5075388563853256 L -2.5006535955314844 -1.7035313537967856 L -1.7956805818831203 -1.7096998242347419 M -1.7450897249102693 -1.9864985935603372 Q -1.8215916471580107 -1.9299414906253343 -1.9167346763732516 -1.9196311079094588 Q -2.011877705588492 -1.9093207251935833 -2.106689384475389 -1.9520611691155643 Q -2.2015010633622856 -1.9948016130375454 -2.2567804093041404 -2.0729213538988716 Q -2.312059755245995 -2.1510410947601977 -2.31988552816208 -2.2456125348373472 Q -2.327711301078165 -2.3401839749144964 -2.287025686190894 -2.4304374000087536 Q -2.245929105496682 -2.521602475861539 -2.170088491531675 -2.577909236320749 Q -2.094247877566669 -2.634215996779959 -1.999310331254899 -2.6440705541165705 Q -1.9043727849431293 -2.6539251114531823 -1.8095611060562327 -2.611184667531201 Q -1.714749427169336 -2.5684442236092204 -1.6592645983240102 -2.490780308127158 Q -1.6037797694786844 -2.413116392645096 -1.5954981711833356 -2.3183394696644752 Q -1.587216572887987 -2.223562546683855 -1.6279021877752573 -2.1333091215895976 Q -1.6685878026625278 -2.0430556964953404 -1.7450897249102693 -1.9864985935603372 M -1.7897940648725494 -2.336272837878779 Q -1.8165879394384317 -2.3960669704149047 -1.8913433016377157 -2.429766166584159 Q -1.9679219653540552 -2.4642872943672973 -2.0300140397446382 -2.4445623280080286 Q -2.0921061141352215 -2.4248373616487604 -2.1229285496558807 -2.3564635547591712 Q -2.1541619509834824 -2.2871780971110547 -2.127618418893393 -2.228045272857664 Q -2.101074886803304 -2.1689124486042735 -2.024496223086964 -2.134391320821135 Q -1.9488292101291522 -2.1002811588449384 -1.8869426186420402 -2.119550299824943 Q -1.8250560271549279 -2.1388194408049475 -1.7938226258273264 -2.2081048984530645 Q -1.763000190306667 -2.276478705342653 -1.7897940648725494 -2.336272837878779 M -1.5141197287486798 -3.4059275278511443 L -1.4066567252425104 -3.292844802037548 L -1.5429359076332547 -3.1633381055044723 L -1.164748799140389 -2.7653738973527773 L -1.3068270956754204 -2.6303562775629747 L -1.685014204168286 -3.0283204857146693 L -1.8198436080229585 -2.900191519995775 L -1.927306611529128 -3.013274245809371 L -1.5141197287486798 -3.4059275278511443 M -0.7669195433118984 -3.793176025950348 L -0.7027976032359219 -3.650963590485327 L -0.8741818203347939 -3.5736884319322266 L -0.6485219158366456 -3.0732100532764783 L -0.8271990783439802 -2.9926465901040977 L -1.0528589828421284 -3.493124968759846 L -1.2224199635888846 -3.4166718863615664 L -1.2865419036648613 -3.5588843218265875 L -0.7669195433118984 -3.793176025950348 M 0.19402688867082574 -3.909159105513562 L 0.22820916324352836 -3.204988265372452 L 0.03243968144543258 -3.1954851081862827 L 0.01871828612050369 -3.4781522681294517 L -0.22000062280676613 -3.466564234621826 L -0.20627922748183725 -3.183897074678657 L -0.402048709279933 -3.174393917492487 L -0.4362309838526357 -3.878564757633597 L -0.24046150205453992 -3.888067914819767 L -0.22761284565487155 -3.6233795848376475 L 0.01110606327239827 -3.6349676183452733 L -0.0017425931272700979 -3.8996559483273923 L 0.19402688867082574 -3.909159105513562 M 0.6953120385722971 -3.6342596083638132 L 0.6601254148433163 -3.5247748993375976 L 0.8743346281554776 -3.455931505085244 L 0.8287450026283634 -3.3140774038251903 L 0.6145357893162021 -3.382920798077544 L 0.5756775178937625 -3.2620115976746797 L 0.8184479596475451 -3.1839890841886787 L 0.7704105689914584 -3.034518655344193 L 0.3410401014190819 -3.172511414490022 L 0.5567494034097902 -3.8437002828681273 L 0.9861198709821668 -3.7057075237222983 L 0.9380824803260799 -3.5562370948778126 L 0.6953120385722971 -3.6342596083638132 M 1.481560085043333 -2.9021124796419056 Q 1.4818497120012917 -2.8422090897860284 1.4449162569634133 -2.7936609703686397 Q 1.3904242741206425 -2.7220325974577384 1.3102014936155624 -2.71898210765547 Q 1.2299787131104822 -2.7159316178532014 1.1408411823769162 -2.7837438631686497 L 0.8630822696446432 -2.995051663303395 L 1.2899361352463496 -3.556140584438789 L 1.5589404690672901 -3.3514929155403825 Q 1.6448945165603717 -3.2861025361290572 1.664778180533343 -3.2106645489673493 Q 1.6846618445063144 -3.135226561805642 1.6319862610916358 -3.065985801325104 Q 1.594447339577727 -3.0166418110975943 1.5434546794935127 -3.003290832948568 Q 1.4924620194092983 -2.989939854799542 1.4404029985222957 -3.010696982353388 Q 1.4812704580853744 -2.962015869497783 1.481560085043333 -2.9021124796419056 M 1.2763962007414693 -3.214625328302839 L 1.355187410943461 -3.154684147175791 Q 1.414081850892424 -3.1098796279495127 1.4510153059303024 -3.1584277473669014 Q 1.489159693920242 -3.2085676084045325 1.4302652539712786 -3.2533721276308105 L 1.3514740437692871 -3.313313308757859 L 1.2763962007414693 -3.214625328302839 M 1.3018992854579292 -2.93764411473422 Q 1.3212742126909145 -2.963111980658096 1.316047661986076 -2.9884483807127555 Q 1.3108211112812373 -3.013784780767415 1.2821697621168768 -3.0355815739045235 L 1.1922363605731896 -3.103999285696003 L 1.1147366516412487 -3.0021278220004985 L 1.205465923995057 -2.9331046437329884 Q 1.2643603639440202 -2.88830012450671 1.3018992854579292 -2.93764411473422 M 1.9446519381029075 -2.702206439914763 L 1.8485249862847095 -2.639082679458483 L 1.9720279958730837 -2.4510082085098346 L 1.847480901778201 -2.369221771049089 L 1.723977892189827 -2.5572962419977374 L 1.6178203019210344 -2.4875856543634103 L 1.757790379454525 -2.2744345872882756 L 1.6265561930592463 -2.1882569317088323 L 1.3790012716176603 -2.5652417601436786 L 1.9683012805900915 -2.9522178568539177 L 2.215856202031677 -2.575233028419072 L 2.0846220156363984 -2.4890553728396285 L 1.9446519381029075 -2.702206439914763 M 2.246324313559546 -2.0579123092557294 L 2.135675807179733 -2.0265768974040173 L 2.1969842216722135 -1.8100906892696 L 2.053622243840977 -1.7694908947834684 L 1.9923138293484963 -1.9859771029178854 L 1.8701193918681809 -1.9513719089599075 L 1.9396022616263258 -1.7060208730742348 L 1.7885429963947546 -1.6632412238505927 L 1.6656536855676043 -2.097175801044469 L 2.3439771377221117 -2.2892754997875753 L 2.4668664485492617 -1.855340922593699 L 2.3158071833176908 -1.812561273370057 L 2.246324313559546 -2.0579123092557294 M 1.851504051803092 -1.497980565919423 Q 1.9138179326824893 -1.5740083914160679 2.0229811106574562 -1.5746413008927909 L 2.0127040011171875 -1.3658941308053922 Q 1.9756012421609457 -1.3647171525409316 1.9576875245879748 -1.34657607421808 Q 1.9397738070150041 -1.3284349958952282 1.9382986238274058 -1.2984712872702429 Q 1.9369709589585673 -1.271503949507756 1.9495941043137117 -1.2533612870420952 Q 1.9622172496688561 -1.2352186245764343 1.9861882165688445 -1.2340384780263558 Q 2.0171507154813293 -1.2325141220658373 2.0355561607834995 -1.2606431032636842 Q 2.05396160608567 -1.2887720844615311 2.078132432362956 -1.3526608249176808 Q 2.1044975303069213 -1.4204463809779886 2.1280613643372583 -1.461837753578939 Q 2.151625198367596 -1.5032291261798896 2.1946239376458037 -1.5326503501599467 Q 2.237622676924012 -1.5620715741400035 2.3045416261864795 -1.5587769983543671 Q 2.3724593657364466 -1.555433249795811 2.4192288204008947 -1.51908950053421 Q 2.465998275065343 -1.4827457512726092 2.488017665877634 -1.4215890146996397 Q 2.5100370566899253 -1.36043227812667 2.5062999259480097 -1.284524216276707 Q 2.5002516748788564 -1.1616730109142668 2.4392070345380183 -1.0910893592259492 Q 2.37816239419718 -1.0205057075376316 2.2740423404326306 -1.0206257244838084 L 2.284516141064579 -1.233368055721205 Q 2.3165266030374836 -1.2327933172752665 2.333416943936495 -1.2504841732272882 Q 2.350307284835506 -1.2681750291793101 2.3517332952501846 -1.2971399475167962 Q 2.352815096254423 -1.3191133338417855 2.340519241337809 -1.3337356439147379 Q 2.328223386421194 -1.3483579539876904 2.304252419521206 -1.3495381005377691 Q 2.284276613771216 -1.350521555996168 2.2690319766222133 -1.3357533117472649 Q 2.2537873394732113 -1.3209850674983614 2.242169067677308 -1.298529205001532 Q 2.2305507958814044 -1.2760733425047026 2.212357376500014 -1.2319145439339436 Q 2.186090624101889 -1.1661265684486348 2.1614788270111323 -1.1237855783331048 Q 2.1368670299203756 -1.0814445882175745 2.0948670809296672 -1.0519741914645977 Q 2.0528671319389584 -1.022503794711621 1.9909421341139886 -1.0255525066326574 Q 1.928018346001519 -1.028650391326614 1.8796277739735217 -1.062570924028846 Q 1.831237201945524 -1.096491456731078 1.805198063596775 -1.1573454892519774 Q 1.7791589252480258 -1.2181995217728772 1.7831419198545413 -1.2991015350603377 Q 1.7891901709236946 -1.421952740422778 1.851504051803092 -1.497980565919423" fill="#ffffff" fill-rule="nonzero"></path></g><g transform="matrix(1,0,0,1,0,0)"><g transform="matrix(1,0,0,1,0,0)" clip-path="url(#SvgjsClipPath117270)"><g clip-path="url(#SvgjsClipPath117268e8e120c7-9a9c-4606-8b13-e6b1fa7a3c0f)"><path d=" M 1.211406744785449 -1.8107765697886085 C 1.2119577714414307 -2.2517661338482546 0.8549354118960961 -2.609717952487381 0.4139459056995629 -2.610313489570898 L -1.211406744785449 -2.610313489570898 L -1.211406744785449 -1.80270444023872 L 0.41394590569957734 -1.80270444023872 C 0.7007504956275974 -1.8026301134945308 0.9653812530653054 -1.6484078005593568 1.1068241797033997 -1.3989067447854473 C 1.1755622479875032 -1.519455860382253 1.2116354795371378 -1.6558627695035772 1.2114750369136211 -1.7946323106888327 Z" fill="#fe8d0d" transform="matrix(1,0,0,1,0,0)" fill-rule="nonzero"></path></g><g clip-path="url(#SvgjsClipPath117268e8e120c7-9a9c-4606-8b13-e6b1fa7a3c0f)"><path d=" M 0.41394590569957734 -0.9950953909065425 L -1.211406744785449 -0.9950953909065425 L -1.211406744785449 -0.1874999999999991 L 0.41394590569957734 -0.1874999999999991 C 0.854933205358396 -0.18808800139020976 1.2119577679815734 -0.5460359139424131 1.2114067447854486 -0.9870232613566545 L 1.2114067447854486 -1.0031811788820644 C 1.211567187408971 -1.1419507200672938 1.17549395585934 -1.2783576291886194 1.1067558875752406 -1.398906744785426 C 0.9653285247115511 -1.1494216638399726 0.7007289146784736 -0.9951970863100468 0.41394590569957734 -0.9950953909065425 Z" fill="#fe8d0d" transform="matrix(1,0,0,1,0,0)" fill-rule="nonzero"></path></g><g clip-path="url(#SvgjsClipPath117268e8e120c7-9a9c-4606-8b13-e6b1fa7a3c0f)"><path d=" M 0.41394590569957734 -1.80270444023872 L -1.211406744785449 -1.80270444023872 L -1.211406744785449 -0.9950953909065425 L 0.41394590569957734 -0.9950953909065425 C 0.7007533412141147 -0.9951725061451129 0.9653847669810744 -1.1494004251421388 1.1068241797033997 -1.3989067447854482 C 0.9653812530653059 -1.6484078005593568 0.7007504956275978 -1.80263011349453 0.41394590569957757 -1.8027044402387191 Z" fill="#dd7517" transform="matrix(1,0,0,1,0,0)" fill-rule="nonzero"></path></g></g></g></g><defs><clipPath id="SvgjsClipPath117270"><path d=" M -1.211406744785449 -2.610313489570898 h 2.422813489570898 v 2.422813489570898 h -2.422813489570898 Z"></path></clipPath><clipPath id="SvgjsClipPath117268e8e120c7-9a9c-4606-8b13-e6b1fa7a3c0f"><path d=" M -1.211406744785449 -2.610313489570898 L 1.211406744785449 -2.610313489570898 L 1.211406744785449 -0.1875 L -1.211406744785449 -0.1875 Z"></path></clipPath></defs></svg>